<?xml version="1.0" encoding="UTF-8"?>
<svg version="1.1" xmlns="http://www.w3.org/2000/svg" width="512" height="512">
<path d="M0 0 C0.66644531 0.50015625 1.33289063 1.0003125 2.01953125 1.515625 C2.63441406 1.95390625 3.24929687 2.3921875 3.8828125 2.84375 C13.66584998 10.39252393 18.88607727 22.3564232 20.55078125 34.33984375 C22.83470012 57.725806 13.7053943 80.52298514 6.77294922 102.48535156 C0.78111095 121.58949746 -0.86837866 138.52400759 1.01953125 158.515625 C4.64953125 158.515625 8.27953125 158.515625 12.01953125 158.515625 C12.42171875 156.93523437 12.82390625 155.35484375 13.23828125 153.7265625 C14.89771256 147.66072073 17.07770065 141.93000259 19.51953125 136.140625 C19.95604004 135.10478271 20.39254883 134.06894043 20.84228516 133.00170898 C34.38248404 101.42477061 53.04001629 70.28771671 85.95019531 56.32910156 C103.66273119 49.36612734 123.81727889 49.50134271 142.01953125 54.515625 C143.79263672 54.99128906 143.79263672 54.99128906 145.6015625 55.4765625 C177.95753588 65.19369188 206.75918013 89.07878245 223.01953125 118.515625 C233.77720805 139.03489742 236.72953909 160.08424022 231.01953125 182.515625 C226.13269012 197.59204975 217.62049031 210.52153674 203.52734375 218.30078125 C179.58528776 229.89888003 153.35574765 220.00615668 129.7578125 212.67333984 C124.14805941 210.93604562 118.52540128 209.24553165 112.89453125 207.578125 C111.96688965 207.29614258 111.03924805 207.01416016 110.08349609 206.72363281 C94.28282765 202.04894655 79.33005572 201.99836691 63.01953125 203.515625 C63.34953125 207.145625 63.67953125 210.775625 64.01953125 214.515625 C65.18484375 214.89332031 66.35015625 215.27101562 67.55078125 215.66015625 C104.10731118 227.81163905 143.21099573 247.03402087 162.01953125 282.515625 C172.37988787 305.6555078 172.36135358 330.32966158 163.69140625 354.04760742 C155.14504028 375.99323734 141.37012408 396.58632914 123.01953125 411.515625 C121.60027344 412.69125 121.60027344 412.69125 120.15234375 413.890625 C101.56944503 428.95752681 79.25935593 438.13498698 55.01953125 436.515625 C41.24625998 434.96332354 28.11505209 431.07502679 17.01953125 422.515625 C16.33246094 422.00386719 15.64539063 421.49210937 14.9375 420.96484375 C4.98796121 412.99379833 -0.24339897 401.94700261 -1.98046875 389.515625 C-3.40270734 368.0188385 2.96193241 348.68270253 9.60253906 328.50708008 C14.3030169 314.17093189 18.79000722 300.20881331 18.33203125 284.953125 C18.3175293 283.45168945 18.3175293 283.45168945 18.30273438 281.91992188 C18.21894846 276.37912263 17.82133013 270.99784337 17.01953125 265.515625 C13.38953125 265.515625 9.75953125 265.515625 6.01953125 265.515625 C5.76300781 266.80726563 5.50648438 268.09890625 5.2421875 269.4296875 C4.11749701 274.46963909 2.41399928 279.12093328 0.45703125 283.890625 C0.10624512 284.75204102 -0.24454102 285.61345703 -0.60595703 286.50097656 C-8.48374024 305.59842184 -17.39442372 323.77733521 -30.98046875 339.515625 C-31.97240234 340.72412109 -31.97240234 340.72412109 -32.984375 341.95703125 C-46.6891852 358.08479132 -66.25790345 370.59951777 -87.76171875 372.421875 C-88.86 372.46828125 -88.86 372.46828125 -89.98046875 372.515625 C-91.57375 372.59296875 -91.57375 372.59296875 -93.19921875 372.671875 C-125.74197869 373.49228071 -155.9846931 359.07077633 -179.36157227 337.04101562 C-198.29428706 318.80241325 -214.72227323 295.39143954 -215.27319336 268.1171875 C-215.4115754 248.16283885 -211.79686066 229.57642479 -197.359375 214.69921875 C-184.81371794 203.18358279 -171.15477354 199.69575525 -154.39477539 200.34590149 C-150.45196539 200.62307736 -146.63396582 201.33364011 -142.765625 202.125 C-141.90662094 202.29921982 -141.04761688 202.47343964 -140.1625824 202.65293884 C-130.08583505 204.79101102 -120.33599981 207.91596741 -110.54296875 211.078125 C-87.32695093 218.51711135 -68.42980847 222.28563446 -43.98046875 219.515625 C-44.31046875 216.215625 -44.64046875 212.915625 -44.98046875 209.515625 C-45.71458984 209.25458984 -46.44871094 208.99355469 -47.20507812 208.72460938 C-61.2154902 203.71525102 -74.93135937 198.69643453 -87.98046875 191.515625 C-89.35800206 190.77721154 -90.73560853 190.03893458 -92.11328125 189.30078125 C-104.27745015 182.70141888 -114.88562591 175.01864289 -124.98046875 165.515625 C-125.65722656 164.91492188 -126.33398438 164.31421875 -127.03125 163.6953125 C-141.4636651 150.3330364 -150.47578367 130.76986871 -151.31640625 111.140625 C-151.87428034 76.39610426 -138.03197941 46.19069186 -114.14453125 21.20898438 C-84.78439185 -8.57299611 -37.80412037 -26.97375075 0 0 Z M-104.98046875 44.515625 C-120.36373619 63.33140658 -130.47624591 86.94610016 -128.98046875 111.515625 C-127.06734005 125.24799798 -121.13446839 136.25771074 -111.98046875 146.515625 C-111.33722656 147.25296875 -110.69398437 147.9903125 -110.03125 148.75 C-91.72059782 168.42087206 -64.61656261 178.59672049 -39.98046875 187.515625 C-37.49008176 185.06364443 -35.32670316 182.71241585 -33.35546875 179.828125 C-30.81280234 176.22491638 -28.03808585 174.09268004 -24.48046875 171.515625 C-21.78870584 169.31395512 -21.78870584 169.31395512 -19.98046875 166.515625 C-19.74586781 162.65409349 -20.4321307 159.17150475 -21.1640625 155.40625 C-24.44953864 137.91797251 -22.09466835 120.32767701 -16.98046875 103.515625 C-16.78203369 102.86172791 -16.58359863 102.20783081 -16.37915039 101.53411865 C-14.28007325 94.62350776 -12.18026398 87.71320893 -9.9909668 80.83056641 C-7.59266082 73.23759505 -5.4246796 65.64515904 -3.671875 57.875 C-3.50618515 57.14871902 -3.3404953 56.42243805 -3.16978455 55.67414856 C-1.20955696 46.6222031 -0.13039934 36.97322804 -4.6796875 28.53125 C-5.32357422 27.53351562 -5.32357422 27.53351562 -5.98046875 26.515625 C-6.42003906 25.82984375 -6.85960937 25.1440625 -7.3125 24.4375 C-13.23366658 16.58258535 -23.18882314 12.02291384 -32.66796875 10.078125 C-62.31854254 6.18242917 -86.22210128 23.14644988 -104.98046875 44.515625 Z M65.70239258 99.41918945 C53.18193405 115.14727658 34.01953125 143.75256659 34.01953125 164.515625 C36.21440283 166.12867659 36.21440283 166.12867659 39.01953125 167.640625 C45.10939433 171.33073583 50.77383039 176.02422327 54.01953125 182.515625 C55.51966222 182.37114517 57.01962827 182.22495285 58.51953125 182.078125 C59.35484375 181.99691406 60.19015625 181.91570312 61.05078125 181.83203125 C63.24963551 181.59767968 65.44335268 181.3139811 67.6328125 181.00390625 C92.84556266 177.85602111 114.37484278 184.28390957 138.02984619 191.81793213 C164.2185021 201.22813393 164.2185021 201.22813393 191.01953125 198.890625 C200.76681863 193.65054194 206.15786172 186.13384148 209.44140625 175.69140625 C213.96607111 158.66276891 210.79503955 142.65313341 202.39453125 127.390625 C198.1282831 120.05726799 192.72184579 113.76142791 187.01953125 107.515625 C186.42527344 106.85046875 185.83101562 106.1853125 185.21875 105.5 C167.62090254 86.81047465 141.91757005 74.24228573 116.26953125 73.140625 C95.82352223 73.56937486 78.57962074 83.98494059 65.70239258 99.41918945 Z M-16.98046875 193.515625 C-22.20045077 201.35248455 -22.72211555 209.32979968 -21.98046875 218.515625 C-20.31163021 225.70369461 -16.66821479 231.79772553 -10.98046875 236.515625 C-2.40296667 241.67561642 5.41168426 244.94058682 15.48046875 243.0546875 C24.65974144 240.65395464 31.60813591 235.27759519 37.01953125 227.515625 C41.20816101 219.87464806 42.11211999 212.05441757 39.89453125 203.640625 C36.63420645 193.73945429 31.06259574 187.62502902 22.01953125 182.515625 C7.16830355 176.19010209 -6.81079179 182.19326071 -16.98046875 193.515625 Z M-180.98046875 230.515625 C-190.20584103 240.7619871 -193.33297084 253.78791367 -193.19921875 267.296875 C-191.67884043 289.66815599 -177.09395632 308.99079113 -160.98046875 323.515625 C-146.18771249 335.98909537 -128.47705509 346.76029348 -108.98046875 349.515625 C-108.08457031 349.64839844 -107.18867188 349.78117187 -106.265625 349.91796875 C-90.53375262 351.75783293 -75.07746042 348.00806946 -62.375 338.4453125 C-61.18970703 337.49011719 -61.18970703 337.49011719 -59.98046875 336.515625 C-59.15933594 335.85820312 -58.33820313 335.20078125 -57.4921875 334.5234375 C-36.07642353 316.33835643 -21.84512048 286.28005364 -14.98046875 259.515625 C-15.68171875 259.11472656 -16.38296875 258.71382813 -17.10546875 258.30078125 C-24.67182695 253.76713456 -29.7879284 248.62244769 -35.33398438 241.86694336 C-36.86738596 240.32958444 -36.86738596 240.32958444 -38.85546875 240.45043945 C-39.55671875 240.5918335 -40.25796875 240.73322754 -40.98046875 240.87890625 C-42.172771 241.09728149 -42.172771 241.09728149 -43.38916016 241.32006836 C-44.24429199 241.48772705 -45.09942383 241.65538574 -45.98046875 241.828125 C-52.86995635 243.00132129 -59.61129072 243.87841984 -66.60546875 243.953125 C-67.28222656 243.97479736 -67.95898438 243.99646973 -68.65625 244.01879883 C-84.55614302 243.96552978 -100.7923474 237.62600774 -115.79296875 232.953125 C-149.34224479 220.53757259 -149.34224479 220.53757259 -180.98046875 230.515625 Z M57.01953125 236.515625 C55.91618187 237.97085337 54.88720035 239.48275922 53.89453125 241.015625 C49.96280143 246.81061718 45.42874332 252.07800963 39.703125 256.171875 C37.73810652 258.90739956 37.85405853 259.43646083 38.28515625 262.6484375 C38.59655811 264.31571039 38.92583378 265.97970897 39.26953125 267.640625 C41.51985186 280.45595111 42.16626053 292.45738571 39.40234375 305.2421875 C39.2286879 306.05435226 39.05503204 306.86651703 38.87611389 307.70329285 C36.67312954 317.59154193 33.56179151 327.19371203 30.45703125 336.828125 C19.86412421 365.906532 19.86412421 365.906532 23.01953125 395.515625 C28.94794172 404.70012087 37.69624739 409.86987919 48.08203125 412.828125 C65.94192299 415.9465188 81.8020323 412.64381582 97.08203125 402.890625 C108.15548303 395.05563554 117.92438493 386.45545125 126.01953125 375.515625 C126.62023437 374.74089844 127.2209375 373.96617187 127.83984375 373.16796875 C142.03018308 354.10964306 148.64253071 332.13072045 147.01953125 308.515625 C143.6361135 288.43932086 128.878495 273.18373421 112.890625 261.78857422 C98.80132487 252.20329096 74.46740704 236.515625 57.01953125 236.515625 Z " fill="#000000" transform="translate(235.98046875,33.484375)"/>
</svg>
